# Blender v2.83.2 OBJ File: ''
# www.blender.org
mtllib pipe.mtl
o Cylinder
v 1.000000 0.000000 -4.923743
v 0.892387 0.000000 1.000000
v 0.980785 -0.195090 -4.923743
v 0.875240 -0.174096 1.000000
v 0.923880 -0.382683 -4.923743
v 0.824458 -0.341502 1.000000
v 0.831470 -0.555570 -4.923743
v 0.741993 -0.495784 1.000000
v 0.707107 -0.707107 -4.923743
v 0.631013 -0.631013 1.000000
v 0.555570 -0.831470 -4.923743
v 0.495784 -0.741993 1.000000
v 0.382683 -0.923880 -4.923743
v 0.341502 -0.824458 1.000000
v 0.195090 -0.980785 -4.923743
v 0.174096 -0.875240 1.000000
v 0.000000 -1.000000 -4.923743
v 0.000000 -0.892387 1.000000
v -0.195090 -0.980785 -4.923743
v -0.174096 -0.875240 1.000000
v -0.382683 -0.923880 -4.923743
v -0.341502 -0.824458 1.000000
v -0.555570 -0.831470 -4.923743
v -0.495784 -0.741993 1.000000
v -0.707107 -0.707107 -4.923743
v -0.631013 -0.631013 1.000000
v -0.831470 -0.555570 -4.923743
v -0.741993 -0.495784 1.000000
v -0.923880 -0.382683 -4.923743
v -0.824458 -0.341502 1.000000
v -0.980785 -0.195090 -4.923743
v -0.875240 -0.174096 1.000000
v -1.000000 0.000000 -4.923743
v -0.892387 0.000000 1.000000
v -0.980785 0.195091 -4.923743
v -0.875240 0.174096 1.000000
v -0.923879 0.382684 -4.923743
v -0.824458 0.341502 1.000000
v -0.831469 0.555571 -4.923743
v -0.741992 0.495784 1.000000
v -0.707106 0.707107 -4.923743
v -0.631013 0.631013 1.000000
v -0.555570 0.831470 -4.923743
v -0.495783 0.741993 1.000000
v -0.382683 0.923880 -4.923743
v -0.341501 0.824458 1.000000
v -0.195089 0.980785 -4.923743
v -0.174095 0.875240 1.000000
v 0.000001 1.000000 -4.923743
v 0.000001 0.892387 1.000000
v 0.195091 0.980785 -4.923743
v 0.174097 0.875240 1.000000
v 0.382684 0.923879 -4.923743
v 0.341503 0.824458 1.000000
v 0.555571 0.831469 -4.923743
v 0.495785 0.741992 1.000000
v 0.707108 0.707106 -4.923743
v 0.631014 0.631012 1.000000
v 0.831470 0.555569 -4.923743
v 0.741993 0.495783 1.000000
v 0.923880 0.382682 -4.923743
v 0.824459 0.341501 1.000000
v 0.980786 0.195089 -4.923743
v 0.875240 0.174095 1.000000
v 0.980785 -0.195090 1.000000
v 1.000000 0.000000 1.000000
v 0.923880 -0.382683 1.000000
v 0.831470 -0.555570 1.000000
v 0.707107 -0.707107 1.000000
v 0.555570 -0.831470 1.000000
v 0.382683 -0.923880 1.000000
v 0.195090 -0.980785 1.000000
v 0.000000 -1.000000 1.000000
v -0.195090 -0.980785 1.000000
v -0.382683 -0.923880 1.000000
v -0.555570 -0.831470 1.000000
v -0.707107 -0.707107 1.000000
v -0.831470 -0.555570 1.000000
v -0.923880 -0.382683 1.000000
v -0.980785 -0.195090 1.000000
v -1.000000 0.000000 1.000000
v -0.980785 0.195091 1.000000
v -0.923879 0.382684 1.000000
v -0.831469 0.555571 1.000000
v -0.707106 0.707107 1.000000
v -0.555570 0.831470 1.000000
v -0.382683 0.923880 1.000000
v -0.195089 0.980785 1.000000
v 0.000001 1.000000 1.000000
v 0.195091 0.980785 1.000000
v 0.382684 0.923879 1.000000
v 0.555571 0.831469 1.000000
v 0.707108 0.707106 1.000000
v 0.831470 0.555569 1.000000
v 0.923880 0.382682 1.000000
v 0.980786 0.195089 1.000000
v 0.892387 0.000000 -4.925121
v 0.875240 -0.174096 -4.925121
v 0.824458 -0.341502 -4.925121
v 0.741993 -0.495784 -4.925121
v 0.631013 -0.631013 -4.925121
v 0.495784 -0.741993 -4.925121
v 0.341502 -0.824458 -4.925121
v 0.174096 -0.875240 -4.925121
v 0.000000 -0.892387 -4.925121
v -0.174096 -0.875240 -4.925121
v -0.341502 -0.824458 -4.925121
v -0.495784 -0.741993 -4.925121
v -0.631013 -0.631013 -4.925121
v -0.741993 -0.495784 -4.925121
v -0.824458 -0.341502 -4.925121
v -0.875240 -0.174096 -4.925121
v -0.892387 0.000000 -4.925121
v -0.875240 0.174096 -4.925121
v -0.824458 0.341502 -4.925121
v -0.741992 0.495784 -4.925121
v -0.631013 0.631013 -4.925121
v -0.495783 0.741993 -4.925121
v -0.341501 0.824458 -4.925121
v -0.174095 0.875240 -4.925121
v 0.000001 0.892387 -4.925121
v 0.174097 0.875240 -4.925121
v 0.341503 0.824458 -4.925121
v 0.495785 0.741992 -4.925121
v 0.631014 0.631012 -4.925121
v 0.741993 0.495783 -4.925121
v 0.824459 0.341501 -4.925121
v 0.875240 0.174095 -4.925121
vt 1.000000 0.500000
vt 1.000000 1.000000
vt 0.968750 1.000000
vt 0.968750 0.500000
vt 0.937500 1.000000
vt 0.937500 0.500000
vt 0.906250 1.000000
vt 0.906250 0.500000
vt 0.875000 1.000000
vt 0.875000 0.500000
vt 0.843750 1.000000
vt 0.843750 0.500000
vt 0.812500 1.000000
vt 0.812500 0.500000
vt 0.781250 1.000000
vt 0.781250 0.500000
vt 0.750000 1.000000
vt 0.750000 0.500000
vt 0.718750 1.000000
vt 0.718750 0.500000
vt 0.687500 1.000000
vt 0.687500 0.500000
vt 0.656250 1.000000
vt 0.656250 0.500000
vt 0.625000 1.000000
vt 0.625000 0.500000
vt 0.593750 1.000000
vt 0.593750 0.500000
vt 0.562500 1.000000
vt 0.562500 0.500000
vt 0.531250 1.000000
vt 0.531250 0.500000
vt 0.500000 1.000000
vt 0.500000 0.500000
vt 0.468750 1.000000
vt 0.468750 0.500000
vt 0.437500 1.000000
vt 0.437500 0.500000
vt 0.406250 1.000000
vt 0.406250 0.500000
vt 0.375000 1.000000
vt 0.375000 0.500000
vt 0.343750 1.000000
vt 0.343750 0.500000
vt 0.312500 1.000000
vt 0.312500 0.500000
vt 0.281250 1.000000
vt 0.281250 0.500000
vt 0.250000 1.000000
vt 0.250000 0.500000
vt 0.218750 1.000000
vt 0.218750 0.500000
vt 0.187500 1.000000
vt 0.187500 0.500000
vt 0.156250 1.000000
vt 0.156250 0.500000
vt 0.125000 1.000000
vt 0.125000 0.500000
vt 0.093750 1.000000
vt 0.093750 0.500000
vt 0.062500 1.000000
vt 0.062500 0.500000
vt 0.031250 1.000000
vt 0.031250 0.500000
vt 0.000000 1.000000
vt 0.000000 0.500000
vt 0.250000 0.464173
vt 0.291783 0.460058
vt 0.296822 0.485388
vt 0.250000 0.490000
vt 0.331960 0.447870
vt 0.341844 0.471731
vt 0.368988 0.428078
vt 0.383337 0.449553
vt 0.401443 0.401443
vt 0.419706 0.419706
vt 0.428078 0.368988
vt 0.449553 0.383337
vt 0.447870 0.331960
vt 0.471731 0.341844
vt 0.460058 0.291783
vt 0.485388 0.296822
vt 0.464173 0.250000
vt 0.490000 0.250000
vt 0.460058 0.208217
vt 0.485388 0.203178
vt 0.447870 0.168040
vt 0.471731 0.158156
vt 0.428078 0.131012
vt 0.449553 0.116663
vt 0.401443 0.098557
vt 0.419706 0.080294
vt 0.368988 0.071922
vt 0.383337 0.050447
vt 0.331960 0.052130
vt 0.341844 0.028269
vt 0.291783 0.039942
vt 0.296822 0.014612
vt 0.250000 0.035827
vt 0.250000 0.010000
vt 0.208217 0.039942
vt 0.203178 0.014612
vt 0.168040 0.052130
vt 0.158156 0.028269
vt 0.131012 0.071922
vt 0.116663 0.050447
vt 0.098557 0.098557
vt 0.080294 0.080294
vt 0.071922 0.131012
vt 0.050447 0.116663
vt 0.052130 0.168040
vt 0.028269 0.158156
vt 0.039942 0.208217
vt 0.014611 0.203179
vt 0.035827 0.250000
vt 0.010000 0.250000
vt 0.039942 0.291783
vt 0.014612 0.296822
vt 0.052130 0.331961
vt 0.028269 0.341844
vt 0.071922 0.368988
vt 0.050447 0.383337
vt 0.098557 0.401443
vt 0.080295 0.419706
vt 0.131012 0.428078
vt 0.116663 0.449553
vt 0.168040 0.447870
vt 0.158156 0.471731
vt 0.208217 0.460058
vt 0.203179 0.485389
vt 0.291783 0.039942
vt 0.250000 0.035827
vt 0.331960 0.447870
vt 0.368988 0.428078
vt 0.131012 0.428078
vt 0.168040 0.447870
vt 0.208217 0.039942
vt 0.401443 0.401443
vt 0.208217 0.460058
vt 0.168040 0.052130
vt 0.428078 0.368988
vt 0.250000 0.464173
vt 0.131012 0.071922
vt 0.447870 0.331960
vt 0.098557 0.098557
vt 0.460058 0.291783
vt 0.071922 0.131012
vt 0.464173 0.250000
vt 0.052130 0.168040
vt 0.460058 0.208217
vt 0.039942 0.208217
vt 0.447870 0.168040
vt 0.035827 0.250000
vt 0.428078 0.131012
vt 0.039942 0.291783
vt 0.401443 0.098557
vt 0.052130 0.331961
vt 0.368988 0.071922
vt 0.071922 0.368988
vt 0.331960 0.052130
vt 0.291783 0.460058
vt 0.098557 0.401443
vt 0.000000 0.000000
vt 0.000000 0.000000
vt 0.000000 0.000000
vt 0.000000 0.000000
vt 0.000000 0.000000
vt 0.000000 0.000000
vt 0.000000 0.000000
vt 0.000000 0.000000
vt 0.000000 0.000000
vt 0.000000 0.000000
vt 0.000000 0.000000
vt 0.000000 0.000000
vt 0.000000 0.000000
vt 0.000000 0.000000
vt 0.000000 0.000000
vt 0.000000 0.000000
vt 0.000000 0.000000
vt 0.000000 0.000000
vt 0.000000 0.000000
vt 0.000000 0.000000
vt 0.000000 0.000000
vt 0.000000 0.000000
vt 0.000000 0.000000
vt 0.000000 0.000000
vt 0.000000 0.000000
vt 0.000000 0.000000
vt 0.000000 0.000000
vt 0.000000 0.000000
vt 0.000000 0.000000
vt 0.000000 0.000000
vt 0.000000 0.000000
vt 0.000000 0.000000
vt 0.000000 0.000000
vt 0.000000 0.000000
vt 0.000000 0.000000
vt 0.000000 0.000000
vt 0.000000 0.000000
vt 0.000000 0.000000
vt 0.000000 0.000000
vt 0.000000 0.000000
vt 0.000000 0.000000
vt 0.000000 0.000000
vt 0.000000 0.000000
vt 0.000000 0.000000
vt 0.000000 0.000000
vt 0.000000 0.000000
vt 0.000000 0.000000
vt 0.000000 0.000000
vt 0.000000 0.000000
vt 0.000000 0.000000
vt 0.000000 0.000000
vt 0.000000 0.000000
vt 0.000000 0.000000
vt 0.000000 0.000000
vt 0.000000 0.000000
vt 0.000000 0.000000
vt 0.000000 0.000000
vt 0.000000 0.000000
vt 0.000000 0.000000
vt 0.000000 0.000000
vt 0.000000 0.000000
vt 0.000000 0.000000
vt 0.000000 0.000000
vt 0.000000 0.000000
vn 0.9952 -0.0980 0.0000
vn 0.9569 -0.2903 0.0000
vn 0.8819 -0.4714 0.0000
vn 0.7730 -0.6344 0.0000
vn 0.6344 -0.7730 0.0000
vn 0.4714 -0.8819 0.0000
vn 0.2903 -0.9569 0.0000
vn 0.0980 -0.9952 0.0000
vn -0.0980 -0.9952 0.0000
vn -0.2903 -0.9569 0.0000
vn -0.4714 -0.8819 0.0000
vn -0.6344 -0.7730 0.0000
vn -0.7730 -0.6344 0.0000
vn -0.8819 -0.4714 0.0000
vn -0.9569 -0.2903 0.0000
vn -0.9952 -0.0980 0.0000
vn -0.9952 0.0980 0.0000
vn -0.9569 0.2903 0.0000
vn -0.8819 0.4714 0.0000
vn -0.7730 0.6344 0.0000
vn -0.6344 0.7730 0.0000
vn -0.4714 0.8819 0.0000
vn -0.2903 0.9569 0.0000
vn -0.0980 0.9952 0.0000
vn 0.0980 0.9952 0.0000
vn 0.2903 0.9569 0.0000
vn 0.4714 0.8819 0.0000
vn 0.6344 0.7730 0.0000
vn 0.7730 0.6344 0.0000
vn 0.8819 0.4714 0.0000
vn 0.9569 0.2903 0.0000
vn 0.9952 0.0980 0.0000
vn 0.0000 0.0000 1.0000
vn 0.0128 -0.0013 -0.9999
vn 0.0128 0.0013 -0.9999
vn -0.0037 -0.0123 -0.9999
vn 0.0123 0.0037 -0.9999
vn 0.0123 -0.0037 -0.9999
vn 0.0113 -0.0061 -0.9999
vn -0.0123 -0.0037 -0.9999
vn 0.0113 0.0061 -0.9999
vn 0.0099 -0.0082 -0.9999
vn 0.0099 0.0082 -0.9999
vn 0.0082 0.0099 -0.9999
vn 0.0082 -0.0099 -0.9999
vn -0.0113 0.0061 -0.9999
vn 0.0061 0.0113 -0.9999
vn 0.0061 -0.0113 -0.9999
vn 0.0037 0.0123 -0.9999
vn 0.0037 -0.0123 -0.9999
vn 0.0013 0.0128 -0.9999
vn 0.0013 -0.0128 -0.9999
vn -0.0013 0.0128 -0.9999
vn -0.0013 -0.0128 -0.9999
vn -0.0037 0.0123 -0.9999
vn -0.0061 0.0113 -0.9999
vn -0.0061 -0.0113 -0.9999
vn -0.0082 0.0099 -0.9999
vn -0.0082 -0.0099 -0.9999
vn -0.0099 0.0082 -0.9999
vn -0.0099 -0.0082 -0.9999
vn -0.0113 -0.0061 -0.9999
vn -0.0123 0.0037 -0.9999
vn -0.0128 0.0013 -0.9999
vn -0.0128 -0.0013 -0.9999
vn 0.0114 0.0061 -0.9999
usemtl None
s off
f 1/1/1 66/2/1 65/3/1 3/4/1
f 3/4/2 65/3/2 67/5/2 5/6/2
f 5/6/3 67/5/3 68/7/3 7/8/3
f 7/8/4 68/7/4 69/9/4 9/10/4
f 9/10/5 69/9/5 70/11/5 11/12/5
f 11/12/6 70/11/6 71/13/6 13/14/6
f 13/14/7 71/13/7 72/15/7 15/16/7
f 15/16/8 72/15/8 73/17/8 17/18/8
f 17/18/9 73/17/9 74/19/9 19/20/9
f 19/20/10 74/19/10 75/21/10 21/22/10
f 21/22/11 75/21/11 76/23/11 23/24/11
f 23/24/12 76/23/12 77/25/12 25/26/12
f 25/26/13 77/25/13 78/27/13 27/28/13
f 27/28/14 78/27/14 79/29/14 29/30/14
f 29/30/15 79/29/15 80/31/15 31/32/15
f 31/32/16 80/31/16 81/33/16 33/34/16
f 33/34/17 81/33/17 82/35/17 35/36/17
f 35/36/18 82/35/18 83/37/18 37/38/18
f 37/38/19 83/37/19 84/39/19 39/40/19
f 39/40/20 84/39/20 85/41/20 41/42/20
f 41/42/21 85/41/21 86/43/21 43/44/21
f 43/44/22 86/43/22 87/45/22 45/46/22
f 45/46/23 87/45/23 88/47/23 47/48/23
f 47/48/24 88/47/24 89/49/24 49/50/24
f 49/50/25 89/49/25 90/51/25 51/52/25
f 51/52/26 90/51/26 91/53/26 53/54/26
f 53/54/27 91/53/27 92/55/27 55/56/27
f 55/56/28 92/55/28 93/57/28 57/58/28
f 57/58/29 93/57/29 94/59/29 59/60/29
f 59/60/30 94/59/30 95/61/30 61/62/30
f 61/62/31 95/61/31 96/63/31 63/64/31
f 63/64/32 96/63/32 66/65/32 1/66/32
f 2/67/33 4/68/33 65/69/33 66/70/33
f 4/68/33 6/71/33 67/72/33 65/69/33
f 6/71/33 8/73/33 68/74/33 67/72/33
f 8/73/33 10/75/33 69/76/33 68/74/33
f 10/75/33 12/77/33 70/78/33 69/76/33
f 12/77/33 14/79/33 71/80/33 70/78/33
f 14/79/33 16/81/33 72/82/33 71/80/33
f 16/81/33 18/83/33 73/84/33 72/82/33
f 18/83/33 20/85/33 74/86/33 73/84/33
f 20/85/33 22/87/33 75/88/33 74/86/33
f 22/87/33 24/89/33 76/90/33 75/88/33
f 24/89/33 26/91/33 77/92/33 76/90/33
f 26/91/33 28/93/33 78/94/33 77/92/33
f 28/93/33 30/95/33 79/96/33 78/94/33
f 30/95/33 32/97/33 80/98/33 79/96/33
f 32/97/33 34/99/33 81/100/33 80/98/33
f 34/99/33 36/101/33 82/102/33 81/100/33
f 36/101/33 38/103/33 83/104/33 82/102/33
f 38/103/33 40/105/33 84/106/33 83/104/33
f 40/105/33 42/107/33 85/108/33 84/106/33
f 42/107/33 44/109/33 86/110/33 85/108/33
f 44/109/33 46/111/33 87/112/33 86/110/33
f 46/111/33 48/113/33 88/114/33 87/112/33
f 48/113/33 50/115/33 89/116/33 88/114/33
f 50/115/33 52/117/33 90/118/33 89/116/33
f 52/117/33 54/119/33 91/120/33 90/118/33
f 54/119/33 56/121/33 92/122/33 91/120/33
f 56/121/33 58/123/33 93/124/33 92/122/33
f 58/123/33 60/125/33 94/126/33 93/124/33
f 60/125/33 62/127/33 95/128/33 94/126/33
f 62/127/33 64/129/33 96/130/33 95/128/33
f 64/129/33 2/67/33 66/70/33 96/130/33
f 34/99/32 32/97/32 112/131/32 113/132/32
f 8/73/19 6/71/19 99/133/19 100/134/19
f 62/127/14 60/125/14 126/135/14 127/136/14
f 36/101/1 34/99/1 113/132/1 114/137/1
f 10/75/20 8/73/20 100/134/20 101/138/20
f 64/129/15 62/127/15 127/136/15 128/139/15
f 38/103/2 36/101/2 114/137/2 115/140/2
f 12/77/21 10/75/21 101/138/21 102/141/21
f 2/67/16 64/129/16 128/139/16 97/142/16
f 40/105/3 38/103/3 115/140/3 116/143/3
f 14/79/22 12/77/22 102/141/22 103/144/22
f 42/107/4 40/105/4 116/143/4 117/145/4
f 16/81/23 14/79/23 103/144/23 104/146/23
f 44/109/5 42/107/5 117/145/5 118/147/5
f 18/83/24 16/81/24 104/146/24 105/148/24
f 46/111/6 44/109/6 118/147/6 119/149/6
f 20/85/25 18/83/25 105/148/25 106/150/25
f 48/113/7 46/111/7 119/149/7 120/151/7
f 22/87/26 20/85/26 106/150/26 107/152/26
f 50/115/8 48/113/8 120/151/8 121/153/8
f 24/89/27 22/87/27 107/152/27 108/154/27
f 52/117/9 50/115/9 121/153/9 122/155/9
f 26/91/28 24/89/28 108/154/28 109/156/28
f 54/119/10 52/117/10 122/155/10 123/157/10
f 28/93/29 26/91/29 109/156/29 110/158/29
f 56/121/11 54/119/11 123/157/11 124/159/11
f 30/95/30 28/93/30 110/158/30 111/160/30
f 4/68/17 2/67/17 97/142/17 98/161/17
f 58/123/12 56/121/12 124/159/12 125/162/12
f 32/97/31 30/95/31 111/160/31 112/131/31
f 6/71/18 4/68/18 98/161/18 99/133/18
f 60/125/13 58/123/13 125/162/13 126/135/13
f 3/163/34 97/164/34 1/165/34
f 63/166/35 97/164/35 128/167/35
f 21/168/36 107/169/36 106/170/36
f 128/167/37 127/171/37 61/172/37
f 61/172/37 63/166/37 128/167/37
f 3/163/38 5/173/38 98/174/38
f 97/164/34 3/163/34 98/174/34
f 7/175/39 99/176/39 5/173/39
f 29/177/40 112/178/40 111/179/40
f 100/180/39 99/176/39 7/175/39
f 127/171/41 126/181/41 59/182/41
f 9/183/42 100/180/42 7/175/42
f 99/176/38 98/174/38 5/173/38
f 97/164/35 63/166/35 1/165/35
f 57/184/43 126/181/43 125/185/43
f 101/186/42 100/180/42 9/183/42
f 125/185/44 124/187/44 57/184/44
f 11/188/45 102/189/45 9/183/45
f 37/190/46 39/191/46 116/192/46
f 53/193/47 55/194/47 124/187/47
f 102/189/48 11/188/48 13/195/48
f 53/193/47 124/187/47 123/196/47
f 103/197/48 102/189/48 13/195/48
f 51/198/49 53/193/49 123/196/49
f 15/199/50 104/200/50 13/195/50
f 51/198/49 123/196/49 122/201/49
f 102/189/45 101/186/45 9/183/45
f 49/202/51 51/198/51 122/201/51
f 17/203/52 105/204/52 15/199/52
f 49/202/51 122/201/51 121/205/51
f 104/200/50 103/197/50 13/195/50
f 47/206/53 49/202/53 121/205/53
f 47/206/53 121/205/53 120/207/53
f 105/204/54 17/203/54 19/208/54
f 106/170/54 105/204/54 19/208/54
f 47/206/55 120/207/55 119/209/55
f 19/208/36 21/168/36 106/170/36
f 45/210/55 47/206/55 119/209/55
f 124/187/44 55/194/44 57/184/44
f 45/210/56 119/209/56 118/211/56
f 108/212/57 107/169/57 21/168/57
f 43/213/56 45/210/56 118/211/56
f 108/212/57 21/168/57 23/214/57
f 117/215/58 41/216/58 118/211/58
f 23/214/59 25/217/59 108/212/59
f 105/204/52 104/200/52 15/199/52
f 41/216/58 43/213/58 118/211/58
f 41/216/60 117/215/60 116/192/60
f 110/218/61 109/219/61 25/217/61
f 39/191/60 41/216/60 116/192/60
f 110/218/61 25/217/61 27/220/61
f 115/221/46 37/190/46 116/192/46
f 111/179/62 110/218/62 27/220/62
f 114/222/63 37/190/63 115/221/63
f 27/220/62 29/177/62 111/179/62
f 126/181/43 57/184/43 59/182/43
f 25/217/59 109/219/59 108/212/59
f 113/223/64 35/224/64 114/222/64
f 29/177/40 31/225/40 112/178/40
f 113/223/65 31/225/65 33/226/65
f 35/224/63 37/190/63 114/222/63
f 31/225/65 113/223/65 112/178/65
f 35/224/64 113/223/64 33/226/64
f 127/171/66 59/182/66 61/172/66
